<svg class="lds-spinner" width="149px"  height="149px"  xmlns="http://www.w3.org/2000/svg" xmlns:xlink="http://www.w3.org/1999/xlink" viewBox="0 0 100 100" preserveAspectRatio="xMidYMid" style="background: none;"><g transform="rotate(0 50 50)">
  <rect x="47" y="24" rx="9.4" ry="4.8" width="6" height="12" fill="#00afb7">
    <animate attributeName="opacity" values="1;0" keyTimes="0;1" dur="4.1s" begin="-3.758333333333333s" repeatCount="indefinite"></animate>
  </rect>
</g><g transform="rotate(30 50 50)">
  <rect x="47" y="24" rx="9.4" ry="4.8" width="6" height="12" fill="#00afb7">
    <animate attributeName="opacity" values="1;0" keyTimes="0;1" dur="4.1s" begin="-3.4166666666666665s" repeatCount="indefinite"></animate>
  </rect>
</g><g transform="rotate(60 50 50)">
  <rect x="47" y="24" rx="9.4" ry="4.8" width="6" height="12" fill="#00afb7">
    <animate attributeName="opacity" values="1;0" keyTimes="0;1" dur="4.1s" begin="-3.0749999999999997s" repeatCount="indefinite"></animate>
  </rect>
</g><g transform="rotate(90 50 50)">
  <rect x="47" y="24" rx="9.4" ry="4.8" width="6" height="12" fill="#00afb7">
    <animate attributeName="opacity" values="1;0" keyTimes="0;1" dur="4.1s" begin="-2.733333333333333s" repeatCount="indefinite"></animate>
  </rect>
</g><g transform="rotate(120 50 50)">
  <rect x="47" y="24" rx="9.4" ry="4.8" width="6" height="12" fill="#00afb7">
    <animate attributeName="opacity" values="1;0" keyTimes="0;1" dur="4.1s" begin="-2.391666666666666s" repeatCount="indefinite"></animate>
  </rect>
</g><g transform="rotate(150 50 50)">
  <rect x="47" y="24" rx="9.4" ry="4.8" width="6" height="12" fill="#00afb7">
    <animate attributeName="opacity" values="1;0" keyTimes="0;1" dur="4.1s" begin="-2.05s" repeatCount="indefinite"></animate>
  </rect>
</g><g transform="rotate(180 50 50)">
  <rect x="47" y="24" rx="9.4" ry="4.8" width="6" height="12" fill="#00afb7">
    <animate attributeName="opacity" values="1;0" keyTimes="0;1" dur="4.1s" begin="-1.7083333333333333s" repeatCount="indefinite"></animate>
  </rect>
</g><g transform="rotate(210 50 50)">
  <rect x="47" y="24" rx="9.4" ry="4.8" width="6" height="12" fill="#00afb7">
    <animate attributeName="opacity" values="1;0" keyTimes="0;1" dur="4.1s" begin="-1.3666666666666665s" repeatCount="indefinite"></animate>
  </rect>
</g><g transform="rotate(240 50 50)">
  <rect x="47" y="24" rx="9.4" ry="4.8" width="6" height="12" fill="#00afb7">
    <animate attributeName="opacity" values="1;0" keyTimes="0;1" dur="4.1s" begin="-1.025s" repeatCount="indefinite"></animate>
  </rect>
</g><g transform="rotate(270 50 50)">
  <rect x="47" y="24" rx="9.4" ry="4.8" width="6" height="12" fill="#00afb7">
    <animate attributeName="opacity" values="1;0" keyTimes="0;1" dur="4.1s" begin="-0.6833333333333332s" repeatCount="indefinite"></animate>
  </rect>
</g><g transform="rotate(300 50 50)">
  <rect x="47" y="24" rx="9.4" ry="4.8" width="6" height="12" fill="#00afb7">
    <animate attributeName="opacity" values="1;0" keyTimes="0;1" dur="4.1s" begin="-0.3416666666666666s" repeatCount="indefinite"></animate>
  </rect>
</g><g transform="rotate(330 50 50)">
  <rect x="47" y="24" rx="9.4" ry="4.8" width="6" height="12" fill="#00afb7">
    <animate attributeName="opacity" values="1;0" keyTimes="0;1" dur="4.1s" begin="0s" repeatCount="indefinite"></animate>
  </rect>
</g></svg>